<svg xmlns="http://www.w3.org/2000/svg" xmlns:xlink="http://www.w3.org/1999/xlink" width="500" zoomAndPan="magnify" viewBox="0 0 375 374.999991" height="500" preserveAspectRatio="xMidYMid meet" version="1.0"><defs><clipPath id="dc3ca59e96"><path d="M 54 22.5 L 85 22.5 L 85 72 L 54 72 Z M 54 22.5 " clip-rule="nonzero"/></clipPath><clipPath id="cedfa99560"><path d="M 51 277 L 160 277 L 160 352.5 L 51 352.5 Z M 51 277 " clip-rule="nonzero"/></clipPath><clipPath id="802262778d"><path d="M 291 22.5 L 321 22.5 L 321 72 L 291 72 Z M 291 22.5 " clip-rule="nonzero"/></clipPath><clipPath id="4cd7dba0ce"><path d="M 215 277 L 324 277 L 324 352.5 L 215 352.5 Z M 215 277 " clip-rule="nonzero"/></clipPath></defs><g clip-path="url(#dc3ca59e96)"><path fill="#000000" d="M 67.921875 56.398438 C 77.503906 49.230469 83.683594 33.839844 84.011719 22.5 C 72.316406 25.277344 59.777344 42.101562 59.242188 54.359375 C 59.023438 59.210938 56.8125 67.398438 54.246094 71.761719 C 57.0625 66.984375 63.484375 59.71875 67.921875 56.398438 Z M 67.921875 56.398438 " fill-opacity="1" fill-rule="nonzero"/></g><path fill="#000000" d="M 36.082031 111.046875 C 38.945312 106.003906 41.460938 100.863281 43.917969 95.6875 C 45.328125 92.699219 47.730469 91.398438 50.847656 90.472656 C 56.296875 88.855469 61.84375 87.191406 66.886719 84.640625 C 74.878906 80.59375 79.457031 73.160156 84.144531 65.433594 C 66.046875 64.476562 54.523438 73.796875 45.613281 88.023438 C 49.996094 73.03125 56.140625 58.390625 46.820312 42.925781 C 36.875 55.117188 32.992188 69.375 39.785156 83.0625 C 42.035156 87.601562 42.367188 91.839844 40.578125 96.578125 C 38.796875 101.296875 37.5625 106.214844 36.082031 111.046875 Z M 36.082031 111.046875 " fill-opacity="1" fill-rule="nonzero"/><path fill="#000000" d="M 18.894531 174.972656 C 22.691406 178.984375 25.167969 183.363281 25.785156 188.976562 C 26.414062 194.65625 27.667969 200.257812 28.570312 205.4375 C 28.570312 199.550781 28.273438 193.273438 28.703125 187.050781 C 28.902344 184.207031 30.015625 181.109375 31.632812 178.761719 C 33.84375 175.527344 36.789062 172.75 39.648438 170.015625 C 49.535156 160.589844 53.175781 148.578125 54.382812 135.425781 C 48.535156 136.335938 41.554688 140.96875 37.46875 146.527344 C 31.101562 155.1875 28.867188 165.171875 28.058594 175.625 C 27.964844 176.828125 28.019531 176.550781 27.8125 177.738281 C 27.554688 179.792969 27.144531 181.824219 26.785156 181.84375 C 26.40625 180.867188 25.613281 176.953125 25.503906 175.945312 C 24.816406 169.929688 24.109375 164.273438 23.429688 158.261719 C 21.980469 145.332031 15.53125 135.226562 5.511719 126.636719 C 1.972656 140.242188 2.648438 152.894531 10.453125 164.523438 C 12.949219 168.226562 15.828125 171.734375 18.894531 174.972656 Z M 18.894531 174.972656 " fill-opacity="1" fill-rule="nonzero"/><path fill="#000000" d="M 27.675781 142.535156 C 26.761719 148.324219 26.789062 156.433594 27.046875 162.082031 C 28.710938 155.582031 29.007812 147.035156 30.378906 140.515625 C 31.296875 136.164062 33.753906 133.003906 37.8125 131.023438 C 40.523438 129.695312 43.105469 128.105469 45.730469 126.609375 C 56.609375 120.371094 63.96875 111.289062 67.90625 98.949219 C 47.242188 100.207031 38.339844 114.101562 30.894531 131.035156 C 30.585938 129.492188 30.777344 128.125 30.914062 126.753906 C 31.402344 121.980469 31.976562 117.222656 32.53125 112.457031 C 34.03125 99.546875 31.484375 87.722656 22.730469 77.199219 C 22.128906 78.277344 21.523438 79.21875 21.046875 80.230469 C 13.667969 95.800781 14.011719 110.992188 23.832031 125.414062 C 27.46875 130.753906 28.675781 136.191406 27.675781 142.535156 Z M 27.675781 142.535156 " fill-opacity="1" fill-rule="nonzero"/><path fill="#000000" d="M 21.476562 218.96875 C 27 222.492188 30.292969 227.082031 31.898438 233.390625 C 33.363281 239.144531 36.628906 246.695312 39.125 251.851562 C 38.074219 245.132812 34.941406 237.046875 33.613281 230.425781 C 32.730469 226.011719 33.757812 222.082031 36.75 218.617188 C 38.75 216.300781 40.519531 213.789062 42.359375 211.339844 C 49.996094 201.183594 53.230469 189.785156 51.976562 176.710938 C 33.226562 186.140625 30.480469 202.632812 30.308594 221.382812 C 29.398438 220.070312 29.035156 218.722656 28.617188 217.386719 C 27.167969 212.746094 25.800781 208.078125 24.414062 203.417969 C 20.652344 190.792969 13.550781 180.792969 1.203125 174.484375 C 1.070312 175.726562 0.886719 176.847656 0.84375 177.984375 C 0.179688 195.441406 6.566406 209.453125 21.476562 218.96875 Z M 21.476562 218.96875 " fill-opacity="1" fill-rule="nonzero"/><path fill="#000000" d="M 50.695312 274.730469 C 54.140625 279.835938 59.976562 286.0625 64.210938 290.222656 C 60.832031 284.03125 54.9375 277.238281 51.328125 271.242188 C 48.917969 267.242188 48.550781 263.050781 50.253906 258.613281 C 51.394531 255.652344 52.238281 252.574219 53.183594 249.546875 C 57.085938 236.953125 56.238281 224.699219 50.4375 212.375 C 35.441406 228.148438 38.539062 245.210938 44.941406 263.570312 C 43.59375 262.609375 42.761719 261.421875 41.882812 260.257812 C 38.839844 256.238281 35.871094 252.160156 32.886719 248.101562 C 24.789062 237.097656 14.363281 229.820312 0.09375 227.992188 C 0.398438 229.25 0.613281 230.414062 0.972656 231.527344 C 6.449219 248.792969 17.597656 260.238281 35.476562 264.304688 C 42.09375 265.808594 46.925781 269.128906 50.695312 274.730469 Z M 50.695312 274.730469 " fill-opacity="1" fill-rule="nonzero"/><path fill="#000000" d="M 65.175781 304.90625 C 72.414062 304.433594 78.375 306.359375 83.945312 310.941406 C 89.027344 315.117188 96.902344 319.710938 102.511719 322.679688 C 97.160156 317.367188 89.0625 312.214844 83.53125 307.171875 C 79.839844 303.8125 78.183594 299.628906 78.574219 294.570312 C 78.835938 291.191406 78.765625 287.785156 78.804688 284.386719 C 78.957031 270.304688 74.355469 258.007812 64.652344 247.164062 C 54.105469 267.886719 62.484375 284.421875 74.640625 301.269531 C 72.964844 300.695312 71.753906 299.734375 70.5 298.808594 C 66.160156 295.621094 61.875 292.355469 57.578125 289.105469 C 45.929688 280.308594 33.027344 276.039062 17.859375 278.515625 C 18.558594 279.707031 19.132812 280.832031 19.832031 281.867188 C 30.722656 297.886719 45.625 306.199219 65.175781 304.90625 Z M 65.175781 304.90625 " fill-opacity="1" fill-rule="nonzero"/><g clip-path="url(#cedfa99560)"><path fill="#000000" d="M 148.597656 344.347656 C 144.949219 343.78125 141.300781 342.832031 137.683594 341.648438 C 135.953125 341.082031 134.230469 340.46875 132.515625 339.816406 C 130.78125 338.945312 129.117188 338.066406 127.585938 337.167969 C 122.898438 334.414062 120.191406 330.335938 119.472656 324.867188 C 118.992188 321.210938 118.152344 317.59375 117.429688 313.96875 C 114.417969 298.933594 106.75 286.871094 93.972656 277.503906 C 87.40625 301.957031 100.050781 317.679688 116.792969 332.886719 C 114.878906 332.648438 113.375 331.894531 111.832031 331.195312 C 106.492188 328.773438 101.191406 326.257812 95.878906 323.769531 C 81.492188 317.019531 66.785156 315.375 51.191406 321.425781 C 52.199219 322.542969 53.066406 323.613281 54.046875 324.554688 C 69.234375 339.160156 86.980469 344.664062 107.519531 338.882812 C 115.132812 336.746094 121.902344 337.457031 128.871094 341.089844 C 129.058594 341.1875 129.25 341.28125 129.441406 341.378906 C 131.636719 342.707031 133.875 343.992188 136.179688 345.195312 C 139.683594 347.027344 143.347656 348.671875 147.207031 349.957031 C 151.0625 351.253906 155.140625 352.15625 159.363281 352.5 L 159.382812 344.804688 C 155.886719 345.101562 152.25 344.929688 148.597656 344.347656 Z M 148.597656 344.347656 " fill-opacity="1" fill-rule="nonzero"/></g><g clip-path="url(#802262778d)"><path fill="#000000" d="M 307.097656 56.398438 C 297.515625 49.230469 291.335938 33.839844 291.007812 22.5 C 302.703125 25.277344 315.242188 42.101562 315.777344 54.359375 C 315.996094 59.210938 318.207031 67.398438 320.773438 71.761719 C 317.960938 66.984375 311.535156 59.71875 307.097656 56.398438 Z M 307.097656 56.398438 " fill-opacity="1" fill-rule="nonzero"/></g><path fill="#000000" d="M 338.9375 111.046875 C 336.074219 106.003906 333.558594 100.863281 331.101562 95.6875 C 329.691406 92.699219 327.289062 91.398438 324.171875 90.472656 C 318.722656 88.855469 313.175781 87.191406 308.136719 84.640625 C 300.140625 80.59375 295.5625 73.160156 290.875 65.433594 C 308.972656 64.476562 320.496094 73.800781 329.40625 88.03125 C 325.023438 73.035156 318.878906 58.398438 328.199219 42.933594 C 338.144531 55.117188 342.027344 69.378906 335.234375 83.066406 C 332.984375 87.609375 332.652344 91.847656 334.441406 96.585938 C 336.222656 101.296875 337.457031 106.214844 338.9375 111.046875 Z M 338.9375 111.046875 " fill-opacity="1" fill-rule="nonzero"/><path fill="#000000" d="M 356.125 174.972656 C 352.328125 178.984375 349.851562 183.363281 349.234375 188.976562 C 348.605469 194.65625 347.351562 200.257812 346.449219 205.4375 C 346.449219 199.550781 346.746094 193.273438 346.316406 187.050781 C 346.117188 184.207031 345.003906 181.109375 343.386719 178.761719 C 341.175781 175.527344 338.230469 172.75 335.371094 170.015625 C 325.484375 160.589844 321.84375 148.578125 320.636719 135.425781 C 326.484375 136.335938 333.464844 140.96875 337.550781 146.527344 C 343.921875 155.1875 346.152344 165.171875 346.960938 175.625 C 347.054688 176.828125 347.003906 176.550781 347.207031 177.738281 C 347.464844 179.792969 347.875 181.824219 348.238281 181.84375 C 348.613281 180.867188 349.40625 176.953125 349.515625 175.945312 C 350.203125 169.929688 350.910156 164.273438 351.589844 158.261719 C 353.042969 145.332031 359.488281 135.226562 369.507812 126.636719 C 373.046875 140.242188 372.371094 152.894531 364.566406 164.523438 C 362.070312 168.226562 359.191406 171.734375 356.125 174.972656 Z M 356.125 174.972656 " fill-opacity="1" fill-rule="nonzero"/><path fill="#000000" d="M 347.34375 142.535156 C 348.257812 148.324219 348.230469 156.433594 347.972656 162.082031 C 346.308594 155.582031 346.011719 147.035156 344.640625 140.515625 C 343.722656 136.164062 341.265625 133.003906 337.207031 131.023438 C 334.496094 129.695312 331.914062 128.105469 329.289062 126.609375 C 318.410156 120.371094 311.050781 111.289062 307.113281 98.949219 C 327.777344 100.207031 336.679688 114.101562 344.125 131.035156 C 344.433594 129.492188 344.242188 128.125 344.105469 126.753906 C 343.617188 121.980469 343.042969 117.222656 342.488281 112.457031 C 340.988281 99.546875 343.539062 87.722656 352.289062 77.199219 C 352.890625 78.277344 353.496094 79.21875 353.972656 80.230469 C 361.351562 95.800781 361.007812 110.992188 351.1875 125.414062 C 347.550781 130.753906 346.34375 136.191406 347.34375 142.535156 Z M 347.34375 142.535156 " fill-opacity="1" fill-rule="nonzero"/><path fill="#000000" d="M 353.550781 218.96875 C 348.023438 222.492188 344.730469 227.082031 343.128906 233.390625 C 341.664062 239.144531 338.394531 246.695312 335.902344 251.851562 C 336.949219 245.132812 340.085938 237.046875 341.410156 230.425781 C 342.296875 226.011719 341.265625 222.082031 338.277344 218.617188 C 336.277344 216.300781 334.507812 213.789062 332.667969 211.339844 C 325.03125 201.183594 321.796875 189.785156 323.050781 176.710938 C 341.800781 186.140625 344.546875 202.632812 344.71875 221.382812 C 345.628906 220.070312 345.992188 218.722656 346.40625 217.386719 C 347.859375 212.746094 349.226562 208.078125 350.613281 203.417969 C 354.375 190.792969 361.476562 180.792969 373.824219 174.484375 C 373.957031 175.726562 374.140625 176.847656 374.179688 177.984375 C 374.839844 195.441406 368.453125 209.453125 353.550781 218.96875 Z M 353.550781 218.96875 " fill-opacity="1" fill-rule="nonzero"/><path fill="#000000" d="M 324.324219 274.730469 C 320.878906 279.835938 315.046875 286.0625 310.808594 290.222656 C 314.1875 284.03125 320.082031 277.238281 323.691406 271.242188 C 326.101562 267.242188 326.46875 263.050781 324.765625 258.613281 C 323.625 255.652344 322.78125 252.574219 321.835938 249.546875 C 317.9375 236.953125 318.78125 224.699219 324.582031 212.375 C 339.578125 228.148438 336.480469 245.210938 330.078125 263.570312 C 331.425781 262.609375 332.257812 261.421875 333.136719 260.257812 C 336.179688 256.238281 339.148438 252.160156 342.132812 248.101562 C 350.230469 237.097656 360.65625 229.820312 374.925781 227.992188 C 374.625 229.25 374.40625 230.414062 374.050781 231.527344 C 368.570312 248.792969 357.421875 260.238281 339.542969 264.304688 C 332.925781 265.808594 328.101562 269.128906 324.324219 274.730469 Z M 324.324219 274.730469 " fill-opacity="1" fill-rule="nonzero"/><path fill="#000000" d="M 309.84375 304.90625 C 302.605469 304.433594 296.644531 306.359375 291.074219 310.941406 C 285.992188 315.117188 278.117188 319.710938 272.507812 322.679688 C 277.859375 317.367188 285.957031 312.214844 291.488281 307.171875 C 295.179688 303.8125 296.835938 299.628906 296.445312 294.570312 C 296.183594 291.191406 296.253906 287.785156 296.214844 284.386719 C 296.0625 270.304688 300.664062 258.007812 310.367188 247.164062 C 320.914062 267.886719 312.535156 284.421875 300.378906 301.269531 C 302.054688 300.695312 303.265625 299.734375 304.519531 298.808594 C 308.859375 295.621094 313.144531 292.355469 317.441406 289.105469 C 329.089844 280.308594 341.992188 276.039062 357.160156 278.515625 C 356.460938 279.707031 355.886719 280.832031 355.1875 281.867188 C 344.304688 297.886719 329.394531 306.199219 309.84375 304.90625 Z M 309.84375 304.90625 " fill-opacity="1" fill-rule="nonzero"/><g clip-path="url(#4cd7dba0ce)"><path fill="#000000" d="M 226.421875 344.347656 C 230.070312 343.78125 233.71875 342.832031 237.335938 341.648438 C 239.066406 341.082031 240.789062 340.46875 242.503906 339.816406 C 244.238281 338.945312 245.902344 338.066406 247.433594 337.167969 C 252.121094 334.414062 254.828125 330.335938 255.546875 324.867188 C 256.027344 321.210938 256.867188 317.59375 257.59375 313.96875 C 260.601562 298.933594 268.269531 286.871094 281.046875 277.503906 C 287.617188 301.957031 274.96875 317.679688 258.226562 332.886719 C 260.140625 332.648438 261.644531 331.894531 263.1875 331.195312 C 268.527344 328.773438 273.828125 326.257812 279.140625 323.769531 C 293.527344 317.019531 308.234375 315.375 323.828125 321.425781 C 322.820312 322.542969 321.957031 323.613281 320.972656 324.554688 C 305.785156 339.160156 288.039062 344.664062 267.5 338.882812 C 259.890625 336.746094 253.117188 337.457031 246.148438 341.089844 C 245.960938 341.1875 245.769531 341.28125 245.578125 341.378906 C 243.382812 342.707031 241.144531 343.992188 238.839844 345.195312 C 235.335938 347.027344 231.675781 348.671875 227.8125 349.957031 C 223.957031 351.253906 219.878906 352.15625 215.65625 352.5 L 215.636719 344.804688 C 219.132812 345.101562 222.777344 344.929688 226.421875 344.347656 Z M 226.421875 344.347656 " fill-opacity="1" fill-rule="nonzero"/></g></svg>